{
  "accessors": [
    {
      "bufferView": 1,
      "componentType": 5126,
      "count": 65534,
      "max": [
        16.181291580200195,
        7.7127418518066406,
        19.864156723022461
      ],
      "min": [
        -7.4329738616943359,
        -0.63625961542129517,
        -17.732316970825195
      ],
      "type": "VEC3"
    },
    {
      "bufferView": 1,
      "byteOffset": 786408,
      "componentType": 5126,
      "count": 65534,
      "max": [
        0.99985355138778687,
        0.32242769002914429,
        0.9065403938293457
      ],
      "min": [
        -0.67635983228683472,
        -0.99999654293060303,
        -0.70262384414672852
      ],
      "type": "VEC3"
    },
    {
      "bufferView": 2,
      "componentType": 5126,
      "count": 65534,
      "max": [
        1,
        1,
        1,
        1
      ],
      "min": [
        1,
        1,
        1,
        1
      ],
      "type": "VEC4"
    },
    {
      "bufferView": 0,
      "componentType": 5125,
      "count": 70314,
      "max": [
        65533
      ],
      "min": [
        0
      ],
      "type": "SCALAR"
    },
    {
      "bufferView": 1,
      "byteOffset": 1572816,
      "componentType": 5126,
      "count": 6486,
      "max": [
        3.077979564666748,
        7.4174637794494629,
        8.6509027481079102
      ],
      "min": [
        -5.5376720428466797,
        4.8424859046936035,
        -10.922842025756836
      ],
      "type": "VEC3"
    },
    {
      "bufferView": 1,
      "byteOffset": 1650648,
      "componentType": 5126,
      "count": 6486,
      "max": [
        0.99946415424346924,
        0.28237217664718628,
        0.90339815616607666
      ],
      "min": [
        -0.41955092549324036,
        -0.99995452165603638,
        -0.55012089014053345
      ],
      "type": "VEC3"
    },
    {
      "bufferView": 2,
      "byteOffset": 1048544,
      "componentType": 5126,
      "count": 6486,
      "max": [
        1,
        1,
        1,
        1
      ],
      "min": [
        1,
        1,
        1,
        1
      ],
      "type": "VEC4"
    },
    {
      "bufferView": 0,
      "byteOffset": 281256,
      "componentType": 5125,
      "count": 6558,
      "max": [
        6485
      ],
      "min": [
        0
      ],
      "type": "SCALAR"
    },
    {
      "bufferView": 1,
      "byteOffset": 1728480,
      "componentType": 5126,
      "count": 65534,
      "max": [
        16.605758666992188,
        0.22628097236156464,
        20.489824295043945
      ],
      "min": [
        -4.7168827056884766,
        -4.1560640335083008,
        -18.114933013916016
      ],
      "type": "VEC3"
    },
    {
      "bufferView": 1,
      "byteOffset": 2514888,
      "componentType": 5126,
      "count": 65534,
      "max": [
        0.99997061491012573,
        0.99999898672103882,
        0.87537509202957153
      ],
      "min": [
        -0.82122772932052612,
        -0.05226936936378479,
        -0.89683771133422852
      ],
      "type": "VEC3"
    },
    {
      "bufferView": 2,
      "byteOffset": 1152320,
      "componentType": 5126,
      "count": 65534,
      "max": [
        1,
        1,
        1,
        1
      ],
      "min": [
        1,
        1,
        1,
        1
      ],
      "type": "VEC4"
    },
    {
      "bufferView": 0,
      "byteOffset": 307488,
      "componentType": 5125,
      "count": 68040,
      "max": [
        65533
      ],
      "min": [
        0
      ],
      "type": "SCALAR"
    },
    {
      "bufferView": 1,
      "byteOffset": 3301296,
      "componentType": 5126,
      "count": 65532,
      "max": [
        17.001504898071289,
        1.7953879833221436,
        20.894561767578125
      ],
      "min": [
        -4.8446683883666992,
        -3.7183761596679688,
        -18.439113616943359
      ],
      "type": "VEC3"
    },
    {
      "bufferView": 1,
      "byteOffset": 4087680,
      "componentType": 5126,
      "count": 65532,
      "max": [
        0.99994224309921265,
        0.99999159574508667,
        0.99985909461975098
      ],
      "min": [
        -0.99961686134338379,
        -0.84207886457443237,
        -0.99990314245223999
      ],
      "type": "VEC3"
    },
    {
      "bufferView": 2,
      "byteOffset": 2200864,
      "componentType": 5126,
      "count": 65532,
      "max": [
        1,
        1,
        1,
        1
      ],
      "min": [
        1,
        1,
        1,
        1
      ],
      "type": "VEC4"
    },
    {
      "bufferView": 0,
      "byteOffset": 579648,
      "componentType": 5125,
      "count": 67092,
      "max": [
        65531
      ],
      "min": [
        0
      ],
      "type": "SCALAR"
    },
    {
      "bufferView": 1,
      "byteOffset": 4874064,
      "componentType": 5126,
      "count": 58828,
      "max": [
        10.362034797668457,
        6.4482192993164062,
        18.040725708007812
      ],
      "min": [
        -7.3747649192810059,
        -2.4861624240875244,
        -16.349761962890625
      ],
      "type": "VEC3"
    },
    {
      "bufferView": 1,
      "byteOffset": 5580000,
      "componentType": 5126,
      "count": 58828,
      "max": [
        0.99990689754486084,
        0.99999511241912842,
        0.99999237060546875
      ],
      "min": [
        -0.99980372190475464,
        -0.55991184711456299,
        -0.99935406446456909
      ],
      "type": "VEC3"
    },
    {
      "bufferView": 2,
      "byteOffset": 3249376,
      "componentType": 5126,
      "count": 58828,
      "max": [
        1,
        1,
        1,
        1
      ],
      "min": [
        1,
        1,
        1,
        1
      ],
      "type": "VEC4"
    },
    {
      "bufferView": 0,
      "byteOffset": 848016,
      "componentType": 5125,
      "count": 59868,
      "max": [
        58827
      ],
      "min": [
        0
      ],
      "type": "SCALAR"
    },
    {
      "bufferView": 1,
      "byteOffset": 6285936,
      "componentType": 5126,
      "count": 65534,
      "max": [
        16.181291580200195,
        7.7127418518066406,
        19.864156723022461
      ],
      "min": [
        -7.4329738616943359,
        -0.63625961542129517,
        -17.732316970825195
      ],
      "type": "VEC3"
    },
    {
      "bufferView": 1,
      "byteOffset": 7072344,
      "componentType": 5126,
      "count": 65534,
      "max": [
        0.99985355138778687,
        0.32242769002914429,
        0.9065403938293457
      ],
      "min": [
        -0.67635983228683472,
        -0.99999654293060303,
        -0.70262384414672852
      ],
      "type": "VEC3"
    },
    {
      "bufferView": 2,
      "byteOffset": 4190624,
      "componentType": 5126,
      "count": 65534,
      "max": [
        1,
        1,
        1,
        1
      ],
      "min": [
        1,
        1,
        1,
        1
      ],
      "type": "VEC4"
    },
    {
      "bufferView": 0,
      "byteOffset": 1087488,
      "componentType": 5125,
      "count": 70314,
      "max": [
        65533
      ],
      "min": [
        0
      ],
      "type": "SCALAR"
    },
    {
      "bufferView": 1,
      "byteOffset": 7858752,
      "componentType": 5126,
      "count": 6486,
      "max": [
        3.077979564666748,
        7.4174637794494629,
        8.6509027481079102
      ],
      "min": [
        -5.5376720428466797,
        4.8424859046936035,
        -10.922842025756836
      ],
      "type": "VEC3"
    },
    {
      "bufferView": 1,
      "byteOffset": 7936584,
      "componentType": 5126,
      "count": 6486,
      "max": [
        0.99946415424346924,
        0.28237217664718628,
        0.90339815616607666
      ],
      "min": [
        -0.41955092549324036,
        -0.99995452165603638,
        -0.55012089014053345
      ],
      "type": "VEC3"
    },
    {
      "bufferView": 2,
      "byteOffset": 5239168,
      "componentType": 5126,
      "count": 6486,
      "max": [
        1,
        1,
        1,
        1
      ],
      "min": [
        1,
        1,
        1,
        1
      ],
      "type": "VEC4"
    },
    {
      "bufferView": 0,
      "byteOffset": 1368744,
      "componentType": 5125,
      "count": 6558,
      "max": [
        6485
      ],
      "min": [
        0
      ],
      "type": "SCALAR"
    },
    {
      "bufferView": 1,
      "byteOffset": 8014416,
      "componentType": 5126,
      "count": 65534,
      "max": [
        16.605758666992188,
        0.22628097236156464,
        20.489824295043945
      ],
      "min": [
        -4.7168827056884766,
        -4.1560640335083008,
        -18.114933013916016
      ],
      "type": "VEC3"
    },
    {
      "bufferView": 1,
      "byteOffset": 8800824,
      "componentType": 5126,
      "count": 65534,
      "max": [
        0.99997061491012573,
        0.99999898672103882,
        0.87537509202957153
      ],
      "min": [
        -0.82122772932052612,
        -0.05226936936378479,
        -0.89683771133422852
      ],
      "type": "VEC3"
    },
    {
      "bufferView": 2,
      "byteOffset": 5342944,
      "componentType": 5126,
      "count": 65534,
      "max": [
        1,
        1,
        1,
        1
      ],
      "min": [
        1,
        1,
        1,
        1
      ],
      "type": "VEC4"
    },
    {
      "bufferView": 0,
      "byteOffset": 1394976,
      "componentType": 5125,
      "count": 68040,
      "max": [
        65533
      ],
      "min": [
        0
      ],
      "type": "SCALAR"
    },
    {
      "bufferView": 1,
      "byteOffset": 9587232,
      "componentType": 5126,
      "count": 65532,
      "max": [
        17.001504898071289,
        1.7953879833221436,
        20.894561767578125
      ],
      "min": [
        -4.8446683883666992,
        -3.7183761596679688,
        -18.439113616943359
      ],
      "type": "VEC3"
    },
    {
      "bufferView": 1,
      "byteOffset": 10373616,
      "componentType": 5126,
      "count": 65532,
      "max": [
        0.99994224309921265,
        0.99999159574508667,
        0.99985909461975098
      ],
      "min": [
        -0.99961686134338379,
        -0.84207886457443237,
        -0.99990314245223999
      ],
      "type": "VEC3"
    },
    {
      "bufferView": 2,
      "byteOffset": 6391488,
      "componentType": 5126,
      "count": 65532,
      "max": [
        1,
        1,
        1,
        1
      ],
      "min": [
        1,
        1,
        1,
        1
      ],
      "type": "VEC4"
    },
    {
      "bufferView": 0,
      "byteOffset": 1667136,
      "componentType": 5125,
      "count": 67092,
      "max": [
        65531
      ],
      "min": [
        0
      ],
      "type": "SCALAR"
    },
    {
      "bufferView": 1,
      "byteOffset": 11160000,
      "componentType": 5126,
      "count": 58828,
      "max": [
        10.362034797668457,
        6.4482192993164062,
        18.040725708007812
      ],
      "min": [
        -7.3747649192810059,
        -2.4861624240875244,
        -16.349761962890625
      ],
      "type": "VEC3"
    },
    {
      "bufferView": 1,
      "byteOffset": 11865936,
      "componentType": 5126,
      "count": 58828,
      "max": [
        0.99990689754486084,
        0.99999511241912842,
        0.99999237060546875
      ],
      "min": [
        -0.99980372190475464,
        -0.55991184711456299,
        -0.99935406446456909
      ],
      "type": "VEC3"
    },
    {
      "bufferView": 2,
      "byteOffset": 7440000,
      "componentType": 5126,
      "count": 58828,
      "max": [
        1,
        1,
        1,
        1
      ],
      "min": [
        1,
        1,
        1,
        1
      ],
      "type": "VEC4"
    },
    {
      "bufferView": 0,
      "byteOffset": 1935504,
      "componentType": 5125,
      "count": 59868,
      "max": [
        58827
      ],
      "min": [
        0
      ],
      "type": "SCALAR"
    }
  ],
  "asset": {
    "extras": {
      "author": "hukai (https://sketchfab.com/hukai)",
      "license": "CC-BY-NC-4.0 (http://creativecommons.org/licenses/by-nc/4.0/)",
      "source": "https://sketchfab.com/3d-models/ears-666808cee1234cf099eb620990d1d684",
      "title": "耳朵、Ears"
    },
    "generator": "Sketchfab-4.58.0",
    "version": "2.0"
  },
  "bufferViews": [
    {
      "buffer": 0,
      "byteLength": 2174976,
      "byteOffset": 0,
      "name": "floatBufferViews",
      "target": 34963
    },
    {
      "buffer": 0,
      "byteLength": 12571872,
      "byteOffset": 2174976,
      "byteStride": 12,
      "name": "floatBufferViews",
      "target": 34962
    },
    {
      "buffer": 0,
      "byteLength": 8381248,
      "byteOffset": 14746848,
      "byteStride": 16,
      "name": "floatBufferViews",
      "target": 34962
    }
  ],
  "buffers": [
    {
      "byteLength": 23128096,
      "uri": "scene.bin"
    }
  ],
  "materials": [
    {
      "doubleSided": true,
      "name": "Scene_-_Root",
      "pbrMetallicRoughness": {
        "baseColorFactor": [
          0.95040749170000005,
          0.67564207970000001,
          0.50692147590000003,
          1
        ],
        "metallicFactor": 0,
        "roughnessFactor": 0.41987423779999999
      }
    }
  ],
  "meshes": [
    {
      "primitives": [
        {
          "attributes": {
            "COLOR_0": 2,
            "NORMAL": 1,
            "POSITION": 0
          },
          "indices": 3,
          "material": 0,
          "mode": 4
        }
      ]
    },
    {
      "primitives": [
        {
          "attributes": {
            "COLOR_0": 6,
            "NORMAL": 5,
            "POSITION": 4
          },
          "indices": 7,
          "material": 0,
          "mode": 4
        }
      ]
    },
    {
      "primitives": [
        {
          "attributes": {
            "COLOR_0": 10,
            "NORMAL": 9,
            "POSITION": 8
          },
          "indices": 11,
          "material": 0,
          "mode": 4
        }
      ]
    },
    {
      "primitives": [
        {
          "attributes": {
            "COLOR_0": 14,
            "NORMAL": 13,
            "POSITION": 12
          },
          "indices": 15,
          "material": 0,
          "mode": 4
        }
      ]
    },
    {
      "primitives": [
        {
          "attributes": {
            "COLOR_0": 18,
            "NORMAL": 17,
            "POSITION": 16
          },
          "indices": 19,
          "material": 0,
          "mode": 4
        }
      ]
    },
    {
      "primitives": [
        {
          "attributes": {
            "COLOR_0": 22,
            "NORMAL": 21,
            "POSITION": 20
          },
          "indices": 23,
          "material": 0,
          "mode": 4
        }
      ]
    },
    {
      "primitives": [
        {
          "attributes": {
            "COLOR_0": 26,
            "NORMAL": 25,
            "POSITION": 24
          },
          "indices": 27,
          "material": 0,
          "mode": 4
        }
      ]
    },
    {
      "primitives": [
        {
          "attributes": {
            "COLOR_0": 30,
            "NORMAL": 29,
            "POSITION": 28
          },
          "indices": 31,
          "material": 0,
          "mode": 4
        }
      ]
    },
    {
      "primitives": [
        {
          "attributes": {
            "COLOR_0": 34,
            "NORMAL": 33,
            "POSITION": 32
          },
          "indices": 35,
          "material": 0,
          "mode": 4
        }
      ]
    },
    {
      "primitives": [
        {
          "attributes": {
            "COLOR_0": 38,
            "NORMAL": 37,
            "POSITION": 36
          },
          "indices": 39,
          "material": 0,
          "mode": 4
        }
      ]
    }
  ],
  "nodes": [
    {
      "children": [
        1
      ],
      "name": "RootNode (gltf orientation matrix)",
      "rotation": [
        -0.70710678118654746,
        -0,
        -0,
        0.70710678118654757
      ]
    },
    {
      "children": [
        2
      ],
      "name": "RootNode (model correction matrix)"
    },
    {
      "children": [
        3,
        11
      ],
      "name": "3d226f1aeea14502a87df9b60c034c41.3ds"
    },
    {
      "children": [
        4,
        7
      ],
      "matrix": [
        1,
        0,
        0,
        0,
        0,
        1,
        0,
        0,
        0,
        0,
        1,
        0,
        7.339848518371582,
        0,
        2.9419608116149902,
        1
      ],
      "name": "____"
    },
    {
      "children": [
        5,
        6
      ],
      "matrix": [
        1,
        0,
        0,
        0,
        0,
        1,
        0,
        0,
        0,
        0,
        1,
        0,
        -7.339848518371582,
        -0,
        -2.9419608116149902,
        1
      ],
      "name": "3DSMeshMatrix"
    },
    {
      "mesh": 0,
      "name": ""
    },
    {
      "mesh": 1,
      "name": ""
    },
    {
      "children": [
        8,
        9,
        10
      ],
      "matrix": [
        1,
        0,
        0,
        0,
        0,
        1,
        0,
        0,
        0,
        0,
        1,
        0,
        -7.339848518371582,
        -0,
        -2.9419608116149902,
        1
      ],
      "name": "3DSMeshMatrix"
    },
    {
      "mesh": 2,
      "name": ""
    },
    {
      "mesh": 3,
      "name": ""
    },
    {
      "mesh": 4,
      "name": ""
    },
    {
      "children": [
        12,
        15
      ],
      "matrix": [
        1,
        0,
        0,
        0,
        0,
        1,
        0,
        0,
        0,
        0,
        1,
        0,
        7.339848518371582,
        0,
        2.9419608116149902,
        1
      ],
      "name": "_____1"
    },
    {
      "children": [
        13,
        14
      ],
      "matrix": [
        1,
        0,
        0,
        0,
        0,
        1,
        0,
        0,
        0,
        0,
        1,
        0,
        -7.339848518371582,
        -0,
        -2.9419608116149902,
        1
      ],
      "name": "3DSMeshMatrix"
    },
    {
      "mesh": 5,
      "name": ""
    },
    {
      "mesh": 6,
      "name": ""
    },
    {
      "children": [
        16,
        17,
        18
      ],
      "matrix": [
        1,
        0,
        0,
        0,
        0,
        1,
        0,
        0,
        0,
        0,
        1,
        0,
        -7.339848518371582,
        -0,
        -2.9419608116149902,
        1
      ],
      "name": "3DSMeshMatrix"
    },
    {
      "mesh": 7,
      "name": ""
    },
    {
      "mesh": 8,
      "name": ""
    },
    {
      "mesh": 9,
      "name": ""
    }
  ],
  "scene": 0,
  "scenes": [
    {
      "name": "OSG_Scene",
      "nodes": [
        0
      ]
    }
  ]
}

